# xmcd
# 
# Track frame offsets:
#	150
#	12997
#	36303
#	48437
#	61244
#	89992
#	112900
#	128882
#	143702
#	170013
#	192292
#	214638
#	240034
#	264597
#
# Disc length: 3981 seconds
#
# Revision: 1
# Processed by: cddbd v1.5.1PL0 Copyright (c) Steve Scherf et al.
# Submitted via: Audio-CD-Archiv 3.00.486
#
DISCID=c30f8b0e
DTITLE=The Falling Fruits - Live in Berlin
DYEAR=1900
DGENRE=blues
TTITLE0=The Blues
TTITLE1=Better Days
TTITLE2=Walking by my Self
TTITLE3=Junkie Mother
TTITLE4=Simple Man
TTITLE5=Shamane
TTITLE6=Southern Man
TTITLE7=Afraid to keep on living
TTITLE8=Knocking on Heavens Door
TTITLE9=Blood and Ashes
TTITLE10=Sweet home Alabama
TTITLE11=Sundancer
TTITLE12=Indian Man
TTITLE13=Free Bird
EXTD=
EXTT0=
EXTT1=
EXTT2=
EXTT3=
EXTT4=
EXTT5=
EXTT6=
EXTT7=
EXTT8=
EXTT9=
EXTT10=
EXTT11=
EXTT12=
EXTT13=
PLAYORDER=
